<svg width="24" height="24" viewBox="0 0 24 24" fill="none" xmlns="http://www.w3.org/2000/svg">
<path d="M20.5248 4.29943C20.1482 3.99413 19.6307 3.91556 19.1771 4.09484L3.81963 10.1566C3.14407 10.4284 2.82185 11.1842 3.09991 11.8447C3.24373 12.1862 3.53 12.4513 3.88659 12.5732L7.19966 13.6993L8.99515 19.5032C8.99876 19.5151 9.00985 19.5223 9.01451 19.5336C9.03308 19.5799 9.06023 19.6225 9.0945 19.6592C9.10727 19.674 9.12118 19.6879 9.13604 19.7007C9.18077 19.737 9.23272 19.7638 9.28859 19.7795C9.29712 19.782 9.30282 19.7894 9.31151 19.7913L9.31653 19.7911L9.31904 19.7921C9.34766 19.7984 9.37685 19.8014 9.4061 19.8011C9.44434 19.7998 9.48227 19.7934 9.51868 19.782C9.52574 19.7801 9.53286 19.7806 9.53976 19.7783C9.60197 19.7569 9.65816 19.7217 9.70393 19.6753C9.70927 19.6701 9.71738 19.6692 9.7225 19.6636L12.3057 16.8771L16.0741 19.7299C16.3031 19.905 16.5854 20.0001 16.876 20C17.5046 19.9999 18.0473 19.5694 18.1768 18.968L20.9734 5.545C21.0703 5.08067 20.8979 4.60192 20.5248 4.29943ZM9.93266 14.8L9.32647 17.6801L8.0623 13.5924L14.3322 10.4004L10.049 14.5881C9.98979 14.646 9.94935 14.7197 9.93266 14.8ZM17.3373 18.7994C17.3044 18.9537 17.1918 19.0802 17.0401 19.1333C16.8919 19.1891 16.7244 19.1642 16.5998 19.0679L12.5167 15.9769C12.3399 15.8431 12.0876 15.8648 11.9374 16.0268L10.1411 17.9644L10.7463 15.0922L16.9079 9.0673C17.0753 8.90388 17.0756 8.63872 16.9084 8.47505C16.7762 8.34549 16.5733 8.3149 16.4073 8.3995L7.52439 12.922L4.167 11.781C3.984 11.7222 3.85954 11.5561 3.85729 11.3678C3.84845 11.1781 3.96329 11.0037 4.14357 10.9332L19.4986 4.8723C19.659 4.80575 19.844 4.83363 19.9765 4.94431C20.1084 5.04835 20.1689 5.21617 20.133 5.37805L17.3373 18.7994Z" fill="white"/>
</svg>
