<svg width="26" height="24" viewBox="0 0 26 24" fill="none" xmlns="http://www.w3.org/2000/svg">
<path d="M23.57 19.25H21.055C20.162 19.25 19.702 18.745 18.941 17.908C18.634 17.572 18.258 17.158 17.757 16.663C16.753 15.708 16.005 15.2 15.602 15.2C15.544 15.2 15.503 15.202 15.475 15.204C15.427 15.417 15.432 16.002 15.439 16.668C15.442 16.987 15.445 17.356 15.445 17.784C15.445 19 14.526 19.25 13.147 19.25C10.188 19.25 7.168 17.471 5.067 14.491C2.025 10.28 1 6.866 1 5.956C1 5.19 1.496 4.751 2.362 4.751H4.878C5.929 4.751 6.258 5.42 6.484 6.046C7.714 9.595 9.519 12.026 10.114 12.329C10.126 12.249 10.137 12.118 10.137 11.907V8.245C10.09 7.392 9.804 7.042 9.552 6.732C9.358 6.495 9.139 6.227 9.139 5.82C9.139 5.305 9.576 4.75 10.28 4.75H14.234C14.786 4.75 15.443 4.996 15.443 6.165V11.088C15.443 11.158 15.447 11.213 15.453 11.255C15.574 11.194 15.8 11.046 16.168 10.682C17.882 8.789 19.136 5.793 19.148 5.763C19.431 5.099 19.968 4.75 20.704 4.75H23.219C23.738 4.75 24.114 4.902 24.336 5.201C24.483 5.398 24.624 5.75 24.458 6.308C24.457 6.311 24.456 6.314 24.455 6.318C24.099 7.78 21.529 11.467 21.008 12.151L21.01 12.152C20.965 12.223 20.847 12.411 20.846 12.461C20.846 12.461 20.852 12.521 20.98 12.683C20.982 12.686 20.985 12.69 20.988 12.693C21.042 12.758 21.197 12.912 21.412 13.129C23.862 15.592 25.4 17.458 24.944 18.554C24.81 18.872 24.465 19.25 23.57 19.25ZM15.603 14.2C16.106 14.2 16.837 14.408 18.455 15.945C18.978 16.462 19.366 16.888 19.682 17.235C20.414 18.039 20.623 18.25 21.057 18.25H23.572C23.879 18.25 24.003 18.189 24.022 18.167C24.093 18.009 24.071 17.221 20.703 13.834C20.44 13.569 20.257 13.378 20.193 13.3C19.636 12.591 19.85 12.12 20.163 11.621C20.187 11.581 20.218 11.546 20.252 11.515C20.649 10.956 23.23 7.249 23.489 6.059C23.494 6.036 23.501 6.013 23.509 5.991C23.544 5.862 23.533 5.803 23.531 5.792C23.522 5.792 23.441 5.75 23.219 5.75H20.704C20.319 5.75 20.173 5.91 20.07 6.15C20.018 6.275 18.737 9.333 16.889 11.373C16.336 11.921 15.642 12.495 15.017 12.232C14.755 12.123 14.443 11.836 14.443 11.087V6.165C14.443 5.852 14.389 5.773 14.385 5.768C14.383 5.768 14.343 5.75 14.234 5.75H10.279C10.17 5.75 10.14 5.807 10.138 5.822C10.138 5.87 10.229 5.982 10.326 6.1C10.622 6.463 11.07 7.012 11.137 8.217L11.138 11.906C11.138 12.377 11.138 13.356 10.173 13.356C8.749 13.356 6.53 9.231 5.541 6.38C5.324 5.78 5.209 5.751 4.878 5.751H2.362C2 5.751 2 5.807 2 5.956C2 6.357 2.716 9.529 5.881 13.91C7.798 16.63 10.514 18.25 13.148 18.25C14.446 18.25 14.446 18.055 14.446 17.784C14.446 17.36 14.443 16.993 14.44 16.677C14.427 15.321 14.422 14.813 14.761 14.471C14.998 14.233 15.306 14.2 15.603 14.2Z" fill="white"/>
</svg>
