<svg width="24" height="24" viewBox="0 0 24 24" fill="none" xmlns="http://www.w3.org/2000/svg">
<path d="M12 21C16.9705 21 21 16.9706 21 12C21 7.02944 16.9705 3 12 3C7.02943 3 3 7.02944 3 12C3 16.9706 7.02943 21 12 21Z" stroke="white"/>
<path d="M9.59255 7.78045C9.32032 7.5134 8.88442 7.51339 8.61217 7.78043L7.79543 8.58156C7.51567 8.85597 7.51566 9.30657 7.79541 9.581L10.7223 12.4522V15.8C10.7223 16.1866 11.0357 16.5 11.4223 16.5H12.5815C12.9681 16.5 13.2815 16.1866 13.2815 15.8V12.4481L16.2046 9.58101C16.4843 9.30659 16.4843 8.85597 16.2046 8.58155L15.3878 7.78042C15.1156 7.5134 14.6797 7.51339 14.4075 7.78042L11.9999 10.142L9.59255 7.78045Z" stroke="white"/>
</svg>
